# xmcd CD database file
#
# Track frame offsets:
#	150
#	22281
#	42122
#	61388
#	75602
#	98890
#	107950
#	118600
#	136527
#	181522
#	216027
#
# Disc length: 3177 seconds
#
# Revision: 0
# Processed by: cddbd v1.5.2PL0 Copyright (c) Steve Scherf et al.
# Submitted via: CDex 1.51
#
DISCID=8c0c670b
DTITLE=Maurane - OLYMPIA  AOUT 1993 CONCERT INTEGRAL Disque2
DYEAR=2016
DGENRE=Blues
TTITLE0=Ca casse
TTITLE1=Tant c'etait bon (en duo avec Philippe Lafontaine)
TTITLE2=Mentir
TTITLE3=Decidement
TTITLE4=Du mal
TTITLE5=Les main d'argent due meilleur rappel
TTITLE6=Les Demoiselles de Rochefort (en duo avec Muriel Robin)
TTITLE7=La chanson de jumelles (en duo avec Muriel Robin)
TTITLE8=Toute les mamas
TTITLE9=Medley ~ Qui es-tu Marie-Jeanne? ~ Les une contre les autres
TTITLE10=Sur un prelude de Bach
EXTD=YEAR: 2016
EXTT0=
EXTT1=
EXTT2=
EXTT3=
EXTT4=
EXTT5=
EXTT6=
EXTT7=
EXTT8=
EXTT9=
EXTT10=
PLAYORDER=
